<svg width="155" height="46" viewBox="0 0 155 46" fill="none" xmlns="http://www.w3.org/2000/svg">
<path d="M17.504 20.216C16.496 20.216 15.592 20.048 14.792 19.712C13.992 19.36 13.36 18.88 12.896 18.272C12.432 17.648 12.176 16.936 12.128 16.136H14.384C14.448 16.792 14.752 17.328 15.296 17.744C15.856 18.16 16.584 18.368 17.48 18.368C18.312 18.368 18.968 18.184 19.448 17.816C19.928 17.448 20.168 16.984 20.168 16.424C20.168 15.848 19.912 15.424 19.4 15.152C18.888 14.864 18.096 14.584 17.024 14.312C16.048 14.056 15.248 13.8 14.624 13.544C14.016 13.272 13.488 12.88 13.04 12.368C12.608 11.84 12.392 11.152 12.392 10.304C12.392 9.632 12.592 9.016 12.992 8.456C13.392 7.896 13.96 7.456 14.696 7.136C15.432 6.8 16.272 6.632 17.216 6.632C18.672 6.632 19.848 7 20.744 7.736C21.64 8.472 22.12 9.48 22.184 10.76H20C19.952 10.072 19.672 9.52 19.16 9.104C18.664 8.688 17.992 8.48 17.144 8.48C16.36 8.48 15.736 8.648 15.272 8.984C14.808 9.32 14.576 9.76 14.576 10.304C14.576 10.736 14.712 11.096 14.984 11.384C15.272 11.656 15.624 11.88 16.04 12.056C16.472 12.216 17.064 12.4 17.816 12.608C18.76 12.864 19.528 13.12 20.12 13.376C20.712 13.616 21.216 13.984 21.632 14.48C22.064 14.976 22.288 15.624 22.304 16.424C22.304 17.144 22.104 17.792 21.704 18.368C21.304 18.944 20.736 19.4 20 19.736C19.28 20.056 18.448 20.216 17.504 20.216ZM37.3871 12.92C37.3871 13.336 37.3631 13.776 37.3151 14.24H26.8031C26.8831 15.536 27.3231 16.552 28.1231 17.288C28.9391 18.008 29.9231 18.368 31.0751 18.368C32.0191 18.368 32.8031 18.152 33.4271 17.72C34.0671 17.272 34.5151 16.68 34.7711 15.944H37.1231C36.7711 17.208 36.0671 18.24 35.0111 19.04C33.9551 19.824 32.6431 20.216 31.0751 20.216C29.8271 20.216 28.7071 19.936 27.7151 19.376C26.7391 18.816 25.9711 18.024 25.4111 17C24.8511 15.96 24.5711 14.76 24.5711 13.4C24.5711 12.04 24.8431 10.848 25.3871 9.824C25.9311 8.8 26.6911 8.016 27.6671 7.472C28.6591 6.912 29.7951 6.632 31.0751 6.632C32.3231 6.632 33.4271 6.904 34.3871 7.448C35.3471 7.992 36.0831 8.744 36.5951 9.704C37.1231 10.648 37.3871 11.72 37.3871 12.92ZM35.1311 12.464C35.1311 11.632 34.9471 10.92 34.5791 10.328C34.2111 9.72 33.7071 9.264 33.0671 8.96C32.4431 8.64 31.7471 8.48 30.9791 8.48C29.8751 8.48 28.9311 8.832 28.1471 9.536C27.3791 10.24 26.9391 11.216 26.8271 12.464H35.1311ZM33.3311 3.128L28.2191 5.864V4.232L33.3311 1.232V3.128ZM42.4539 8.984C42.8379 8.232 43.3819 7.648 44.0859 7.232C44.8059 6.816 45.6779 6.608 46.7019 6.608V8.864H46.1259C43.6779 8.864 42.4539 10.192 42.4539 12.848V20H40.2699V6.848H42.4539V8.984ZM54.647 6.632C55.783 6.632 56.775 6.88 57.623 7.376C58.487 7.872 59.127 8.496 59.543 9.248V6.848H61.751V20.288C61.751 21.488 61.495 22.552 60.983 23.48C60.471 24.424 59.735 25.16 58.775 25.688C57.831 26.216 56.727 26.48 55.463 26.48C53.735 26.48 52.295 26.072 51.143 25.256C49.991 24.44 49.311 23.328 49.103 21.92H51.263C51.503 22.72 51.999 23.36 52.751 23.84C53.503 24.336 54.407 24.584 55.463 24.584C56.663 24.584 57.639 24.208 58.391 23.456C59.159 22.704 59.543 21.648 59.543 20.288V17.528C59.111 18.296 58.471 18.936 57.623 19.448C56.775 19.96 55.783 20.216 54.647 20.216C53.479 20.216 52.415 19.928 51.455 19.352C50.511 18.776 49.767 17.968 49.223 16.928C48.679 15.888 48.407 14.704 48.407 13.376C48.407 12.032 48.679 10.856 49.223 9.848C49.767 8.824 50.511 8.032 51.455 7.472C52.415 6.912 53.479 6.632 54.647 6.632ZM59.543 13.4C59.543 12.408 59.343 11.544 58.943 10.808C58.543 10.072 57.999 9.512 57.311 9.128C56.639 8.728 55.895 8.528 55.079 8.528C54.263 8.528 53.519 8.72 52.847 9.104C52.175 9.488 51.639 10.048 51.239 10.784C50.839 11.52 50.639 12.384 50.639 13.376C50.639 14.384 50.839 15.264 51.239 16.016C51.639 16.752 52.175 17.32 52.847 17.72C53.519 18.104 54.263 18.296 55.079 18.296C55.895 18.296 56.639 18.104 57.311 17.72C57.999 17.32 58.543 16.752 58.943 16.016C59.343 15.264 59.543 14.392 59.543 13.4ZM66.5698 4.712C66.1538 4.712 65.8018 4.568 65.5138 4.28C65.2258 3.992 65.0818 3.64 65.0818 3.224C65.0818 2.808 65.2258 2.456 65.5138 2.168C65.8018 1.88 66.1538 1.736 66.5698 1.736C66.9698 1.736 67.3058 1.88 67.5778 2.168C67.8658 2.456 68.0098 2.808 68.0098 3.224C68.0098 3.64 67.8658 3.992 67.5778 4.28C67.3058 4.568 66.9698 4.712 66.5698 4.712ZM67.6258 6.848V20H65.4418V6.848H67.6258ZM77.084 20.216C75.852 20.216 74.732 19.936 73.724 19.376C72.732 18.816 71.948 18.024 71.372 17C70.812 15.96 70.532 14.76 70.532 13.4C70.532 12.056 70.82 10.872 71.396 9.848C71.988 8.808 72.788 8.016 73.796 7.472C74.804 6.912 75.932 6.632 77.18 6.632C78.428 6.632 79.556 6.912 80.564 7.472C81.572 8.016 82.364 8.8 82.94 9.824C83.532 10.848 83.828 12.04 83.828 13.4C83.828 14.76 83.524 15.96 82.916 17C82.324 18.024 81.516 18.816 80.492 19.376C79.468 19.936 78.332 20.216 77.084 20.216ZM77.084 18.296C77.868 18.296 78.604 18.112 79.292 17.744C79.98 17.376 80.532 16.824 80.948 16.088C81.38 15.352 81.596 14.456 81.596 13.4C81.596 12.344 81.388 11.448 80.972 10.712C80.556 9.976 80.012 9.432 79.34 9.08C78.668 8.712 77.94 8.528 77.156 8.528C76.356 8.528 75.62 8.712 74.948 9.08C74.292 9.432 73.764 9.976 73.364 10.712C72.964 11.448 72.764 12.344 72.764 13.4C72.764 14.472 72.956 15.376 73.34 16.112C73.74 16.848 74.268 17.4 74.924 17.768C75.58 18.12 76.3 18.296 77.084 18.296ZM15.032 29.984C15.416 29.232 15.96 28.648 16.664 28.232C17.384 27.816 18.256 27.608 19.28 27.608V29.864H18.704C16.256 29.864 15.032 31.192 15.032 33.848V41H12.848V27.848H15.032V29.984ZM22.9291 25.712C22.5131 25.712 22.1611 25.568 21.8731 25.28C21.5851 24.992 21.4411 24.64 21.4411 24.224C21.4411 23.808 21.5851 23.456 21.8731 23.168C22.1611 22.88 22.5131 22.736 22.9291 22.736C23.3291 22.736 23.6651 22.88 23.9371 23.168C24.2251 23.456 24.3691 23.808 24.3691 24.224C24.3691 24.64 24.2251 24.992 23.9371 25.28C23.6651 25.568 23.3291 25.712 22.9291 25.712ZM23.9851 27.848V41H21.8011V27.848H23.9851ZM26.8914 34.4C26.8914 33.04 27.1634 31.856 27.7074 30.848C28.2514 29.824 29.0034 29.032 29.9634 28.472C30.9394 27.912 32.0514 27.632 33.2994 27.632C34.9154 27.632 36.2434 28.024 37.2834 28.808C38.3394 29.592 39.0354 30.68 39.3714 32.072H37.0194C36.7954 31.272 36.3554 30.64 35.6994 30.176C35.0594 29.712 34.2594 29.48 33.2994 29.48C32.0514 29.48 31.0434 29.912 30.2754 30.776C29.5074 31.624 29.1234 32.832 29.1234 34.4C29.1234 35.984 29.5074 37.208 30.2754 38.072C31.0434 38.936 32.0514 39.368 33.2994 39.368C34.2594 39.368 35.0594 39.144 35.6994 38.696C36.3394 38.248 36.7794 37.608 37.0194 36.776H39.3714C39.0194 38.12 38.3154 39.2 37.2594 40.016C36.2034 40.816 34.8834 41.216 33.2994 41.216C32.0514 41.216 30.9394 40.936 29.9634 40.376C29.0034 39.816 28.2514 39.024 27.7074 38C27.1634 36.976 26.8914 35.776 26.8914 34.4ZM41.4695 34.376C41.4695 33.032 41.7415 31.856 42.2855 30.848C42.8295 29.824 43.5735 29.032 44.5175 28.472C45.4775 27.912 46.5415 27.632 47.7095 27.632C48.8615 27.632 49.8615 27.88 50.7095 28.376C51.5575 28.872 52.1895 29.496 52.6055 30.248V27.848H54.8135V41H52.6055V38.552C52.1735 39.32 51.5255 39.96 50.6615 40.472C49.8135 40.968 48.8215 41.216 47.6855 41.216C46.5175 41.216 45.4615 40.928 44.5175 40.352C43.5735 39.776 42.8295 38.968 42.2855 37.928C41.7415 36.888 41.4695 35.704 41.4695 34.376ZM52.6055 34.4C52.6055 33.408 52.4055 32.544 52.0055 31.808C51.6055 31.072 51.0615 30.512 50.3735 30.128C49.7015 29.728 48.9575 29.528 48.1415 29.528C47.3255 29.528 46.5815 29.72 45.9095 30.104C45.2375 30.488 44.7015 31.048 44.3015 31.784C43.9015 32.52 43.7015 33.384 43.7015 34.376C43.7015 35.384 43.9015 36.264 44.3015 37.016C44.7015 37.752 45.2375 38.32 45.9095 38.72C46.5815 39.104 47.3255 39.296 48.1415 39.296C48.9575 39.296 49.7015 39.104 50.3735 38.72C51.0615 38.32 51.6055 37.752 52.0055 37.016C52.4055 36.264 52.6055 35.392 52.6055 34.4ZM60.6883 29.984C61.0723 29.232 61.6163 28.648 62.3203 28.232C63.0403 27.816 63.9123 27.608 64.9363 27.608V29.864H64.3603C61.9123 29.864 60.6883 31.192 60.6883 33.848V41H58.5043V27.848H60.6883V29.984ZM66.6414 34.376C66.6414 33.032 66.9134 31.856 67.4574 30.848C68.0014 29.824 68.7454 29.032 69.6894 28.472C70.6494 27.912 71.7214 27.632 72.9054 27.632C73.9294 27.632 74.8814 27.872 75.7614 28.352C76.6414 28.816 77.3134 29.432 77.7774 30.2V23.24H79.9854V41H77.7774V38.528C77.3454 39.312 76.7054 39.96 75.8574 40.472C75.0094 40.968 74.0174 41.216 72.8814 41.216C71.7134 41.216 70.6494 40.928 69.6894 40.352C68.7454 39.776 68.0014 38.968 67.4574 37.928C66.9134 36.888 66.6414 35.704 66.6414 34.376ZM77.7774 34.4C77.7774 33.408 77.5774 32.544 77.1774 31.808C76.7774 31.072 76.2334 30.512 75.5454 30.128C74.8734 29.728 74.1294 29.528 73.3134 29.528C72.4974 29.528 71.7534 29.72 71.0814 30.104C70.4094 30.488 69.8734 31.048 69.4734 31.784C69.0734 32.52 68.8734 33.384 68.8734 34.376C68.8734 35.384 69.0734 36.264 69.4734 37.016C69.8734 37.752 70.4094 38.32 71.0814 38.72C71.7534 39.104 72.4974 39.296 73.3134 39.296C74.1294 39.296 74.8734 39.104 75.5454 38.72C76.2334 38.32 76.7774 37.752 77.1774 37.016C77.5774 36.264 77.7774 35.392 77.7774 34.4ZM89.4121 41.216C88.1801 41.216 87.0601 40.936 86.0521 40.376C85.0601 39.816 84.2761 39.024 83.7001 38C83.1401 36.96 82.8601 35.76 82.8601 34.4C82.8601 33.056 83.1481 31.872 83.7241 30.848C84.3161 29.808 85.1161 29.016 86.1241 28.472C87.1321 27.912 88.2601 27.632 89.5081 27.632C90.7561 27.632 91.8841 27.912 92.8921 28.472C93.9001 29.016 94.6921 29.8 95.2681 30.824C95.8601 31.848 96.1561 33.04 96.1561 34.4C96.1561 35.76 95.8521 36.96 95.2441 38C94.6521 39.024 93.8441 39.816 92.8201 40.376C91.7961 40.936 90.6601 41.216 89.4121 41.216ZM89.4121 39.296C90.1961 39.296 90.9321 39.112 91.6201 38.744C92.3081 38.376 92.8601 37.824 93.2761 37.088C93.7081 36.352 93.9241 35.456 93.9241 34.4C93.9241 33.344 93.7161 32.448 93.3001 31.712C92.8841 30.976 92.3401 30.432 91.6681 30.08C90.9961 29.712 90.2681 29.528 89.4841 29.528C88.6841 29.528 87.9481 29.712 87.2761 30.08C86.6201 30.432 86.0921 30.976 85.6921 31.712C85.2921 32.448 85.0921 33.344 85.0921 34.4C85.0921 35.472 85.2841 36.376 85.6681 37.112C86.0681 37.848 86.5961 38.4 87.2521 38.768C87.9081 39.12 88.6281 39.296 89.4121 39.296Z" fill="white"/>
<line x1="2" x2="2" y2="46" stroke="#5280E2" stroke-width="4"/>
</svg>
