<svg width="91" height="90" viewBox="0 0 91 90" fill="none" xmlns="http://www.w3.org/2000/svg">
<rect width="91" height="90" rx="45" fill="#212226" fill-opacity="0.6"/>
<path fill-rule="evenodd" clip-rule="evenodd" d="M23.0833 30.4167C23.0833 28.1155 24.9488 26.25 27.25 26.25H64.75C67.0512 26.25 68.9167 28.1155 68.9167 30.4167V59.5833C68.9167 61.8845 67.0512 63.75 64.75 63.75H27.25C24.9488 63.75 23.0833 61.8845 23.0833 59.5833V30.4167ZM64.75 30.4167H27.25V59.5833H64.75V30.4167ZM31.9182 37.3942C32.667 36.5206 33.9822 36.4194 34.8558 37.1682L42.1475 43.4182C42.6093 43.814 42.875 44.3918 42.875 45C42.875 45.6082 42.6093 46.186 42.1475 46.5818L34.8558 52.8318C33.9822 53.5806 32.667 53.4794 31.9182 52.6058C31.1694 51.7322 31.2706 50.417 32.1442 49.6682L37.5904 45L32.1442 40.3318C31.2706 39.583 31.1694 38.2678 31.9182 37.3942ZM42.875 53.3333C42.875 52.1827 43.8077 51.25 44.9583 51.25H58.5C59.6506 51.25 60.5833 52.1827 60.5833 53.3333C60.5833 54.4839 59.6506 55.4167 58.5 55.4167H44.9583C43.8077 55.4167 42.875 54.4839 42.875 53.3333Z" fill="#15CDCB"/>
</svg>
