<svg width="36" height="36" viewBox="0 0 36 36" fill="none" xmlns="http://www.w3.org/2000/svg">
<path d="M4.28522 28.2867L4.73243 28.5103L4.87075 28.2337L4.68498 27.9864L4.28522 28.2867ZM7.7133 31.7148L8.01361 31.3151L7.76633 31.1293L7.48969 31.2676L7.7133 31.7148ZM0.85714 35.1429L0.409926 34.9193C0.313679 35.1118 0.351406 35.3443 0.503586 35.4965C0.655766 35.6486 0.888252 35.6864 1.08075 35.5901L0.85714 35.1429ZM11.1429 11.1429L10.8429 10.7429C10.717 10.8373 10.6429 10.9855 10.6429 11.1429H11.1429ZM24.8571 24.8572V25.3572C25.0046 25.3572 25.1446 25.2921 25.2396 25.1793L24.8571 24.8572ZM12.2082 10.3439L11.9082 9.9439L12.2082 10.3439ZM14.9378 11.5027L14.4417 11.5647L14.9378 11.5027ZM15.3246 14.5967L15.8207 14.5347L15.3246 14.5967ZM14.8357 16.0215L14.4822 15.6679H14.4822L14.8357 16.0215ZM25.6171 23.9548L25.2346 23.6327L25.6171 23.9548ZM24.554 21.1543L24.6264 20.6596L24.554 21.1543ZM21.4232 20.6961L21.4956 20.2014L21.4232 20.6961ZM19.9627 21.1802L20.3163 21.5337L19.9627 21.1802ZM0.357161 18C0.357161 21.9717 1.67011 25.6381 3.88546 28.5871L4.68498 27.9864C2.59527 25.2047 1.35716 21.7477 1.35716 18H0.357161ZM18 0.357178C8.25614 0.357178 0.357161 8.25615 0.357161 18H1.35716C1.35716 8.80844 8.80842 1.35718 18 1.35718V0.357178ZM35.6429 18C35.6429 8.25615 27.7439 0.357178 18 0.357178V1.35718C27.1916 1.35718 34.6429 8.80844 34.6429 18H35.6429ZM18 35.6429C27.7439 35.6429 35.6429 27.7439 35.6429 18H34.6429C34.6429 27.1916 27.1916 34.6429 18 34.6429V35.6429ZM7.41298 32.1146C10.3619 34.3299 14.0283 35.6429 18 35.6429V34.6429C14.2523 34.6429 10.7953 33.4048 8.01361 31.3151L7.41298 32.1146ZM1.08075 35.5901L7.9369 32.162L7.48969 31.2676L0.633533 34.6957L1.08075 35.5901ZM3.83801 28.0631L0.409926 34.9193L1.30435 35.3665L4.73243 28.5103L3.83801 28.0631ZM10.6429 11.1429V12.8572H11.6429V11.1429H10.6429ZM23.1429 25.3572H24.8571V24.3572H23.1429V25.3572ZM10.6429 12.8572C10.6429 19.7608 16.2393 25.3572 23.1429 25.3572V24.3572C16.7916 24.3572 11.6429 19.2085 11.6429 12.8572H10.6429ZM11.4429 11.5429L12.5082 10.7439L11.9082 9.9439L10.8429 10.7429L11.4429 11.5429ZM14.4417 11.5647L14.8284 14.6587L15.8207 14.5347L15.434 11.4407L14.4417 11.5647ZM14.4822 15.6679L12.5036 17.6465L13.2107 18.3536L15.1893 16.375L14.4822 15.6679ZM14.8284 14.6587C14.8749 15.0305 14.7471 15.403 14.4822 15.6679L15.1893 16.375C15.6724 15.8919 15.9055 15.2127 15.8207 14.5347L14.8284 14.6587ZM12.5082 10.7439C13.2541 10.1845 14.326 10.6396 14.4417 11.5647L15.434 11.4407C15.2231 9.75363 13.2684 8.92379 11.9082 9.9439L12.5082 10.7439ZM25.2396 25.1793L25.9995 24.2768L25.2346 23.6327L24.4747 24.5351L25.2396 25.1793ZM24.6264 20.6596L21.4956 20.2014L21.3508 21.1909L24.4816 21.649L24.6264 20.6596ZM19.6092 20.8266L17.6464 22.7894L18.3535 23.4965L20.3163 21.5337L19.6092 20.8266ZM21.4956 20.2014C20.8033 20.1001 20.1039 20.3319 19.6092 20.8266L20.3163 21.5337C20.5876 21.2624 20.9711 21.1353 21.3508 21.1909L21.4956 20.2014ZM25.9995 24.2768C27.1172 22.9496 26.3433 20.9108 24.6264 20.6596L24.4816 21.649C25.4232 21.7868 25.8476 22.9048 25.2346 23.6327L25.9995 24.2768Z" fill="#12F3D8"/>
</svg>
