<svg width="91" height="90" viewBox="0 0 91 90" fill="none" xmlns="http://www.w3.org/2000/svg">
<rect width="91" height="90" rx="45" fill="#212226" fill-opacity="0.6"/>
<path d="M49.8383 25.4678C49.9816 24.3261 49.1723 23.2845 48.0306 23.1412C46.889 22.9979 45.8474 23.8072 45.7041 24.9488L40.7356 64.5322C40.5923 65.6738 41.4016 66.7155 42.5433 66.8588C43.6849 67.0021 44.7265 66.1927 44.8698 65.0511L49.8383 25.4678Z" fill="#15CDCB"/>
<path d="M38.1135 32.0427C38.9414 32.8418 38.9647 34.1606 38.1656 34.9885L27.1134 46.4388L38.1125 57.0417C38.9409 57.8403 38.9651 59.1592 38.1666 59.9875C37.368 60.8159 36.0492 60.8401 35.2208 60.0415L22.7208 47.9918C22.3228 47.6081 22.0936 47.0821 22.0837 46.5294C22.0737 45.9767 22.2838 45.4427 22.6677 45.045L35.1677 32.0948C35.9668 31.2669 37.2857 31.2436 38.1135 32.0427Z" fill="#15CDCB"/>
<path d="M51.8865 32.0427C52.7143 31.2436 54.0332 31.2669 54.8323 32.0948L67.3323 45.045C67.7162 45.4427 67.9263 45.9767 67.9163 46.5294C67.9064 47.0821 67.6772 47.6081 67.2792 47.9918L54.7792 60.0415C53.9508 60.8401 52.632 60.8159 51.8334 59.9875C51.0349 59.1592 51.0591 57.8403 51.8874 57.0417L62.8866 46.4388L51.8344 34.9885C51.0353 34.1606 51.0586 32.8418 51.8865 32.0427Z" fill="#15CDCB"/>
</svg>
