<svg width="91" height="90" viewBox="0 0 91 90" fill="none" xmlns="http://www.w3.org/2000/svg">
<rect width="91" height="90" rx="45" fill="#212226" fill-opacity="0.6"/>
<path fill-rule="evenodd" clip-rule="evenodd" d="M29.319 23.2688C29.3723 23.2479 29.4266 23.2291 29.4816 23.2126C29.6964 23.1481 29.9142 23.12 30.128 23.125H57.872C58.0852 23.12 58.3023 23.1479 58.5164 23.212C58.5721 23.2287 58.627 23.2476 58.681 23.2688C59.1421 23.4492 59.5045 23.7779 59.7326 24.1805L67.6636 37.9936C67.8277 38.2677 67.9306 38.5826 67.9535 38.9195C67.9557 38.9521 67.9572 38.9848 67.9579 39.0175C67.9586 39.0487 67.9585 39.0798 67.9578 39.111C67.9464 39.6111 67.7587 40.0677 67.4545 40.421L45.6012 66.1247C45.5454 66.1917 45.4857 66.2549 45.4223 66.314C45.315 66.4142 45.1975 66.5027 45.0718 66.5782C44.7552 66.7682 44.3868 66.875 44 66.875C43.369 66.875 42.7871 66.5908 42.399 66.1249L20.5456 40.4212C20.2412 40.0676 20.0535 39.6108 20.0422 39.1104C20.0411 39.0626 20.0416 39.0148 20.0438 38.9671C20.0598 38.6122 20.1646 38.2805 20.3364 37.9936L28.2673 24.1807C28.4954 23.778 28.8579 23.4493 29.319 23.2688ZM40.1742 27.2917H33.0206L35.5424 34.4624L40.1742 27.2917ZM38.877 36.9792H49.123L44 29.048L38.877 36.9792ZM52.4576 34.4624L47.8259 27.2917H54.9794L52.4576 34.4624ZM58.3775 30.1884L62.2765 36.9792H55.9894L58.3775 30.1884ZM44 58.512L50.1072 41.1459H37.8928L44 58.512ZM29.6225 30.1884L32.0107 36.9792H25.7235L29.6225 30.1884ZM33.476 41.1459H26.6308L38.3047 54.8766L33.476 41.1459ZM61.3692 41.1459H54.5241L49.6953 54.8766L61.3692 41.1459Z" fill="#15CDCB"/>
</svg>
