<svg width="26" height="26" viewBox="0 0 26 26" fill="none" xmlns="http://www.w3.org/2000/svg">
<path d="M20.5 14.25C20.5 13.5596 19.9404 13 19.25 13H6.75L6.60422 13.0084C5.98255 13.0806 5.5 13.609 5.5 14.25C5.5 14.9404 6.05964 15.5 6.75 15.5H19.25L19.3958 15.4916C20.0175 15.4194 20.5 14.891 20.5 14.25Z" fill="#15CDCB"/>
<path d="M14.2552 19.25C14.2552 18.5596 13.6955 18 13.0052 18H6.75L6.60422 18.0084C5.98255 18.0806 5.5 18.609 5.5 19.25C5.5 19.9404 6.05964 20.5 6.75 20.5H13.0052L13.151 20.4916C13.7726 20.4194 14.2552 19.891 14.2552 19.25Z" fill="#15CDCB"/>
<path fill-rule="evenodd" clip-rule="evenodd" d="M3.625 0.5C1.89911 0.5 0.5 1.89911 0.5 3.625V22.375C0.5 24.1009 1.89911 25.5 3.625 25.5H22.375C24.1009 25.5 25.5 24.1009 25.5 22.375V6.25406C25.5 5.90766 25.3563 5.57679 25.1031 5.34039L20.2811 0.838373C20.0575 0.628527 19.7567 0.5 19.4259 0.5H3.625ZM14.2538 3H18.9337L23 6.7975V22.375C23 22.7202 22.7202 23 22.375 23H3.625C3.27981 23 3 22.7202 3 22.375V3.625C3 3.27982 3.27982 3 3.625 3H5.5V6.36537C5.5 7.429 6.42786 8 7.375 8H12.375C13.3221 8 14.25 7.429 14.25 6.36537L14.2538 3ZM8 3V5.5H11.7513L11.7538 3H8Z" fill="#15CDCB"/>
</svg>
