<svg width="36" height="36" viewBox="0 0 36 36" fill="none" xmlns="http://www.w3.org/2000/svg">
<path d="M3.77298 30.5832L3.67493 31.0735H3.67493L3.77298 30.5832ZM32.227 30.5832L32.3251 31.0735L32.227 30.5832ZM32.4224 5.66194L32.5271 5.17304L32.4224 5.66194ZM3.57764 5.66194L3.6824 6.15085L3.57764 5.66194ZM14.5714 12.8572L14.8287 12.4284C14.6742 12.3357 14.4818 12.3333 14.3251 12.4221C14.1683 12.5108 14.0714 12.677 14.0714 12.8572H14.5714ZM14.5714 23.1429H14.0714C14.0714 23.323 14.1683 23.4892 14.3251 23.578C14.4818 23.6667 14.6742 23.6643 14.8287 23.5716L14.5714 23.1429ZM23.1429 18L23.4001 18.4288C23.5507 18.3384 23.6429 18.1756 23.6429 18C23.6429 17.8244 23.5507 17.6616 23.4001 17.5713L23.1429 18ZM0.357143 9.02716V27.0264H1.35714V9.02716H0.357143ZM35.6429 27.0264V9.02716H34.6429V27.0264H35.6429ZM3.67493 31.0735C13.1313 32.9647 22.8687 32.9647 32.3251 31.0735L32.129 30.0929C22.802 31.9583 13.198 31.9583 3.87104 30.0929L3.67493 31.0735ZM32.5271 5.17304C22.9511 3.12103 13.0489 3.12103 3.47287 5.17304L3.6824 6.15085C13.1203 4.12843 22.8797 4.12843 32.3176 6.15085L32.5271 5.17304ZM35.6429 9.02716C35.6429 7.16854 34.3445 5.56248 32.5271 5.17304L32.3176 6.15085C33.6739 6.44148 34.6429 7.64008 34.6429 9.02716H35.6429ZM34.6429 27.0264C34.6429 28.5171 33.5907 29.8005 32.129 30.0929L32.3251 31.0735C34.2542 30.6876 35.6429 28.9938 35.6429 27.0264H34.6429ZM0.357143 27.0264C0.357143 28.9938 1.74578 30.6876 3.67493 31.0735L3.87104 30.0929C2.40932 29.8005 1.35714 28.5171 1.35714 27.0264H0.357143ZM1.35714 9.02716C1.35714 7.64008 2.32611 6.44148 3.6824 6.15085L3.47287 5.17304C1.65551 5.56248 0.357143 7.16854 0.357143 9.02716H1.35714ZM14.0714 12.8572V23.1429H15.0714V12.8572H14.0714ZM14.8287 23.5716L23.4001 18.4288L22.8856 17.5713L14.3142 22.7141L14.8287 23.5716ZM23.4001 17.5713L14.8287 12.4284L14.3142 13.2859L22.8856 18.4288L23.4001 17.5713Z" fill="#12F3D8"/>
</svg>
